<svg width="12" height="12" viewBox="0 0 12 12" fill="none" xmlns="http://www.w3.org/2000/svg">
<g id="Frame">
<path id="Vector" d="M10.3692 2.99707C10.2067 3.00197 10.0526 3.06992 9.93947 3.18652L4.50002 8.61719L2.05763 6.18066C1.99997 6.12075 1.93094 6.07294 1.85458 6.04003C1.77821 6.00713 1.69605 5.98979 1.6129 5.98904C1.52975 5.98829 1.44728 6.00413 1.37034 6.03565C1.29339 6.06717 1.2235 6.11372 1.16477 6.17258C1.10603 6.23144 1.05964 6.30143 1.02829 6.37845C0.996944 6.45547 0.981281 6.53797 0.982217 6.62112C0.983154 6.70426 1.00067 6.78639 1.03374 6.86268C1.06681 6.93898 1.11478 7.0079 1.17482 7.06543L4.05861 9.94238C4.17578 10.0592 4.33452 10.1249 4.50002 10.1249C4.66551 10.1249 4.82425 10.0592 4.94142 9.94238L10.8223 4.07031C10.9126 3.98259 10.9743 3.86964 10.9994 3.74624C11.0245 3.62284 11.0117 3.49476 10.9627 3.37876C10.9137 3.26276 10.8308 3.16426 10.7249 3.09615C10.619 3.02804 10.495 2.99351 10.3692 2.99707Z" fill="black"/>
</g>
</svg>
